<?xml version="1.0" standalone="no"?>
<!DOCTYPE svg PUBLIC "-//W3C//DTD SVG 20010904//EN"
 "http://www.w3.org/TR/2001/REC-SVG-20010904/DTD/svg10.dtd">
<svg version="1.0" xmlns="http://www.w3.org/2000/svg"
 width="1081.000000pt" height="1081.000000pt" viewBox="0 0 1081.000000 1081.000000"
 preserveAspectRatio="xMidYMid meet">
<metadata>
Created by potrace 1.14, written by Peter Selinger 2001-2017
</metadata>
<g transform="translate(0.000000,1081.000000) scale(0.100000,-0.100000)"
fill="#000000" stroke="none">
<path d="M4990 10504 c-74 -7 -136 -13 -137 -13 -7 -2 -1 -150 6 -188 5 -25
18 -50 31 -61 24 -19 21 -42 -6 -42 -8 0 -12 -4 -9 -10 4 -6 -39 -10 -122 -11
-496 -2 -1238 -11 -1242 -15 -2 -2 386 -3 862 -2 764 3 868 1 872 -12 2 -8 7
-145 11 -305 l6 -290 -93 -23 c-52 -12 -106 -22 -121 -22 -15 0 -38 -5 -52
-11 -14 -7 -33 -8 -43 -4 -24 10 -62 6 -93 -10 -14 -7 -36 -18 -50 -24 -14 -6
-59 -36 -100 -66 -41 -31 -86 -60 -100 -66 -14 -6 -33 -18 -42 -26 -10 -9 -18
-13 -18 -9 0 4 -7 1 -15 -8 -8 -8 -15 -20 -15 -26 0 -6 -4 -9 -9 -5 -22 13
-47 -37 -42 -82 1 -6 -8 -14 -19 -18 -11 -3 -20 -13 -20 -21 0 -7 -16 -24 -35
-36 -19 -13 -37 -34 -40 -47 -4 -14 -23 -41 -44 -60 -21 -20 -48 -54 -59 -76
-28 -51 -50 -76 -85 -95 l-29 -14 26 -9 c36 -12 33 -26 -19 -77 -29 -29 -43
-50 -40 -61 3 -9 1 -29 -6 -45 -6 -16 -15 -56 -20 -88 -6 -32 -15 -68 -21 -80
-11 -20 -11 -20 -19 -1 -6 15 -8 9 -7 -20 1 -56 -28 -204 -46 -240 -9 -17 -16
-40 -16 -51 0 -12 -10 -34 -22 -49 l-21 -28 21 12 c22 12 30 3 13 -15 -15 -16
-22 -92 -9 -100 6 -4 8 -3 4 4 -3 6 -2 14 4 17 13 8 2 -94 -11 -111 -5 -6 -8
-34 -7 -62 2 -43 -2 -54 -22 -72 -18 -16 -25 -17 -32 -8 -6 10 -8 9 -8 -3 0
-8 -12 -26 -26 -40 -33 -31 -54 -81 -54 -131 0 -42 14 -78 31 -78 6 0 7 5 3
12 -4 7 -3 8 5 4 9 -6 9 -11 1 -21 -8 -9 -3 -26 17 -65 l27 -52 -21 -17 c-11
-9 -29 -22 -39 -29 -17 -11 -13 -12 23 -7 35 4 43 2 48 -14 5 -18 -28 -101
-41 -101 -2 0 -9 10 -14 23 -9 21 -10 21 -7 1 1 -11 -4 -29 -12 -38 -11 -14
-12 -22 -4 -36 9 -13 8 -22 -3 -38 -9 -13 -11 -23 -4 -27 13 -8 13 -35 0 -35
-5 0 -10 7 -10 15 0 21 -13 19 -28 -5 -16 -25 -61 -24 -83 3 -16 20 -17 20
-34 -6 -13 -20 -16 -39 -11 -79 10 -98 13 -106 40 -138 23 -28 25 -37 19 -69
-15 -71 -6 -127 31 -178 19 -27 36 -57 38 -68 1 -11 10 -26 20 -32 9 -7 14
-21 12 -30 -3 -10 2 -27 11 -38 9 -11 14 -14 10 -7 -4 7 0 12 9 12 21 0 21
-29 0 -37 -10 -4 -14 -13 -10 -28 4 -14 -1 -31 -14 -45 -36 -41 -19 -60 56
-60 34 0 83 -45 66 -62 -15 -15 -298 -107 -412 -134 -225 -53 -418 -126 -480
-182 -21 -19 -87 -58 -140 -83 -114 -54 -148 -67 -185 -73 -90 -16 -282 -86
-365 -134 -25 -15 -70 -45 -100 -68 -54 -41 -140 -99 -204 -139 -144 -89 -403
-348 -474 -474 -8 -13 -22 -38 -31 -55 -10 -17 -40 -65 -68 -106 -27 -41 -63
-97 -78 -125 -16 -27 -34 -57 -41 -65 -14 -18 -82 -150 -119 -235 -35 -79
-170 -347 -206 -410 -16 -27 -36 -70 -45 -95 -34 -93 -87 -225 -94 -235 -4 -5
-13 -28 -20 -50 -7 -22 -24 -60 -37 -84 -12 -24 -23 -52 -23 -62 0 -11 -4 -19
-8 -19 -5 0 -14 -25 -21 -56 l-13 -56 71 -141 c65 -132 151 -278 257 -438 24
-37 47 -75 52 -85 14 -36 83 -134 93 -134 6 0 8 -3 6 -7 -3 -5 15 -33 39 -63
24 -30 69 -88 101 -129 32 -41 97 -118 145 -170 49 -53 115 -129 148 -168 51
-64 178 -182 424 -398 l69 -60 131 -6 c116 -5 141 -9 219 -38 74 -28 91 -38
98 -61 10 -27 12 -27 94 -29 47 0 100 -7 117 -14 18 -7 55 -14 83 -16 27 -1
57 -9 67 -17 13 -12 21 -13 37 -4 12 6 27 7 34 3 6 -4 41 -8 77 -9 249 -6 426
-17 432 -26 3 -7 32 -10 67 -9 68 2 77 -8 31 -36 -16 -9 -30 -20 -30 -24 0 -4
-16 -17 -35 -29 -20 -12 -42 -35 -50 -50 -17 -33 -21 -65 -5 -40 8 13 10 13
10 -1 0 -9 -8 -27 -19 -40 -10 -13 -24 -41 -30 -61 -8 -25 -17 -35 -27 -31 -8
3 -14 1 -14 -5 0 -6 5 -12 11 -14 7 -2 2 -36 -14 -98 -14 -52 -22 -99 -20
-103 6 -10 77 -41 115 -50 26 -7 27 -5 34 40 4 26 20 76 35 110 20 45 26 72
22 96 -4 26 2 45 26 84 17 28 31 55 31 62 0 6 5 10 12 9 7 -2 13 3 14 10 1 6
2 16 3 22 2 18 86 96 116 107 17 6 89 28 160 49 72 21 138 43 147 49 45 30
209 195 193 195 -9 0 -30 9 -46 21 l-29 20 -10 -23 c-8 -19 -9 -15 -7 22 l2
45 105 7 c123 8 203 20 222 34 7 6 44 20 81 33 64 22 73 23 165 12 53 -7 125
-17 159 -23 35 -5 74 -7 87 -4 15 4 26 1 30 -7 3 -6 4 -3 3 7 -1 13 12 29 38
47 38 27 46 28 150 29 127 0 165 9 226 50 61 41 92 39 124 -7 43 -64 29 -117
-56 -205 l-54 -55 30 -18 c242 -139 472 -220 659 -230 38 -2 67 -10 85 -22 22
-17 100 -131 117 -173 11 -28 31 -85 52 -145 11 -33 25 -73 30 -90 35 -98 39
-270 7 -305 -7 -8 -17 -27 -20 -42 -9 -35 -4 -35 128 -3 166 42 196 54 212 84
22 44 48 199 40 250 -6 46 -44 169 -70 226 -7 17 -25 66 -39 110 -14 44 -31
90 -38 102 -6 13 -8 26 -4 30 4 5 62 9 129 10 107 2 161 -4 213 -24 9 -3 14 1
14 11 0 9 -10 21 -22 26 -19 7 -20 9 -5 9 11 1 32 -8 48 -20 16 -11 34 -17 40
-13 6 3 16 0 21 -7 8 -11 9 -10 4 4 -4 12 0 17 14 17 10 0 22 5 25 10 9 15 86
12 116 -4 22 -11 28 -11 48 5 15 12 39 19 69 19 44 0 45 1 28 19 -17 19 -17
20 6 32 13 7 28 18 33 25 6 7 19 14 29 16 18 3 18 4 4 19 -15 15 -13 17 28 26
24 6 44 7 44 2 0 -4 12 -6 27 -5 18 2 34 -5 50 -22 l23 -25 19 22 c15 17 28
22 53 19 22 -2 32 1 30 9 -1 7 7 22 17 32 17 17 26 18 53 10 18 -5 46 -9 63
-9 36 0 94 -21 210 -76 33 -16 163 -118 181 -142 10 -14 19 -10 70 28 102 77
331 268 447 373 38 34 80 71 94 82 41 33 112 107 203 210 47 54 110 125 140
159 31 33 74 86 97 117 23 31 65 83 93 115 57 65 119 156 234 344 l77 125
-225 3 -226 2 -6 27 c-4 14 -8 33 -9 42 -1 9 -4 23 -8 31 -4 8 -18 66 -32 129
-25 113 -24 130 7 131 20 0 -26 172 -50 190 -4 3 -13 30 -19 60 -7 30 -23 102
-36 160 -13 58 -25 127 -26 154 -4 99 -49 328 -82 421 -6 17 -17 52 -24 78 -7
26 -18 53 -23 60 -5 7 -17 35 -27 62 -10 28 -33 82 -50 120 -17 39 -37 86 -44
105 -8 19 -19 49 -26 65 -7 17 -23 57 -35 90 -23 60 -79 184 -108 240 -26 50
-29 57 -72 150 -23 50 -46 99 -52 110 -6 11 -25 45 -41 75 -17 30 -38 66 -49
79 -10 13 -18 28 -18 32 0 10 -80 111 -114 145 -12 11 -44 47 -72 80 -35 40
-72 70 -115 93 -87 45 -159 91 -159 102 0 18 -117 85 -176 101 -32 9 -117 26
-189 38 -130 21 -183 34 -220 51 -11 5 -70 22 -131 38 -61 17 -133 39 -160 49
-27 10 -83 25 -124 32 -53 9 -81 19 -94 34 -10 11 -21 20 -25 18 -3 -2 -8 5
-9 15 -3 14 -1 15 8 6 7 -6 19 -9 27 -6 11 4 9 8 -8 17 -31 15 -36 36 -9 36
17 0 21 4 15 18 -4 9 -9 25 -12 34 -8 26 -32 29 -54 7 l-21 -21 2 39 c6 89 2
107 -28 121 -61 27 -90 68 -117 170 -5 18 -13 22 -45 22 -32 0 -45 7 -77 40
-34 35 -47 41 -116 55 -44 8 -98 12 -123 8 -60 -8 -74 6 -73 73 1 42 7 58 25
75 13 12 24 27 24 32 0 5 29 38 64 72 65 63 124 152 147 221 16 49 43 74 79
74 37 0 59 -28 87 -108 l23 -67 -4 55 c-2 31 0 64 5 73 10 18 57 67 64 67 2 0
11 -19 20 -42 21 -54 56 -82 93 -73 34 8 80 72 88 125 4 22 8 40 9 40 2 0 16
-7 31 -15 20 -10 59 -15 125 -15 60 0 99 -4 107 -12 9 -9 12 -2 12 35 0 65
-26 91 -81 82 -50 -9 -134 4 -104 15 29 12 134 0 175 -19 19 -9 40 -27 47 -41
23 -46 -4 -196 -59 -328 -48 -116 -96 -142 -262 -142 -112 0 -159 10 -210 43
-32 22 -37 20 -29 -11 8 -32 49 -50 140 -63 87 -12 184 -5 255 17 77 25 110
76 178 274 18 52 41 104 51 115 23 26 39 69 39 106 0 25 -6 33 -37 46 -21 8
-91 23 -155 31 -106 15 -118 18 -118 37 -1 39 -23 60 -67 63 -23 2 -50 -1 -60
-7 -11 -5 -41 -12 -68 -16 -50 -6 -106 -27 -165 -63 l-35 -22 28 0 c16 0 26 4
23 9 -3 5 11 8 32 8 20 -1 48 2 62 7 22 8 23 7 8 -8 -9 -9 -29 -16 -45 -16
-15 0 -44 -5 -63 -11 -114 -34 -135 -38 -150 -24 -8 7 -33 18 -55 25 -79 25
-99 34 -146 67 -27 18 -53 33 -59 33 -5 0 -10 5 -10 11 0 6 -8 9 -17 7 -10 -2
-23 2 -28 10 -14 17 -125 41 -190 40 -37 -1 -53 -6 -63 -20 -8 -11 -21 -17
-31 -13 -9 2 -32 0 -51 -5 -19 -6 -70 -13 -114 -16 -67 -4 -80 -2 -91 13 -13
17 -14 17 -32 0 -11 -9 -35 -17 -54 -17 -28 0 -40 7 -57 30 -16 21 -31 30 -50
30 -18 0 -37 9 -50 25 -28 33 -99 67 -122 60 -10 -3 -21 -2 -24 3 -10 16 -47
6 -77 -22 -16 -15 -29 -32 -29 -37 0 -6 -17 -8 -39 -6 -28 3 -48 14 -74 40
-20 19 -46 38 -57 42 -18 6 -20 12 -15 33 3 15 17 35 30 45 13 10 33 33 45 51
22 37 45 43 187 51 39 2 68 9 78 18 18 18 20 37 4 37 -6 0 -8 7 -5 16 3 8 2
12 -4 9 -6 -3 -11 1 -11 9 -2 28 -4 31 -33 59 -23 23 -26 30 -15 43 10 12 8
19 -10 37 -11 13 -21 32 -22 43 0 11 -3 13 -6 6 -7 -18 -42 29 -49 68 -5 25
-15 35 -45 47 -34 13 -39 19 -39 48 0 19 -5 37 -11 41 -6 3 -9 19 -6 34 4 17
-1 41 -13 63 -17 31 -17 37 -4 47 8 7 13 20 12 28 -2 10 5 18 17 20 11 2 28
11 38 21 11 9 42 27 70 41 29 15 56 35 61 47 12 26 66 33 281 35 139 1 191 -2
271 -18 21 -4 36 -1 47 10 17 18 53 21 62 6 3 -5 16 -10 29 -10 12 0 31 -7 42
-15 25 -19 64 -19 64 0 0 18 5 18 30 5 11 -6 17 -17 14 -25 -7 -17 31 -22 41
-5 7 12 39 -2 70 -31 14 -12 25 -15 35 -9 12 8 12 10 -3 16 -9 3 -17 13 -17
22 0 12 5 11 23 -6 13 -12 31 -22 40 -22 9 0 25 -9 35 -21 11 -11 35 -22 55
-25 l35 -4 -9 38 c-5 20 -9 44 -9 52 0 21 27 -20 35 -53 4 -15 11 -27 17 -27
5 0 24 -11 41 -24 39 -29 73 -40 89 -29 18 11 84 12 144 2 39 -7 59 -6 87 6
34 14 37 14 51 -7 9 -12 16 -27 16 -32 0 -5 8 -18 17 -28 15 -17 15 -20 3 -28
-13 -8 -13 -10 1 -10 8 0 20 5 26 11 12 12 5 56 -10 66 -6 4 -7 1 -2 -8 5 -8
-4 -3 -19 11 -14 13 -24 30 -22 37 3 8 -2 13 -14 13 -16 0 -18 5 -13 34 3 22
-1 46 -11 68 -10 18 -20 54 -23 81 -4 30 -11 47 -19 47 -8 0 -14 7 -14 15 0
38 -56 148 -94 183 -45 41 -128 95 -167 107 -13 4 -37 21 -54 37 -38 38 -100
78 -120 78 -9 0 -18 6 -21 14 -3 7 -23 22 -44 32 -22 11 -40 22 -40 27 0 4
-16 7 -36 7 -22 0 -47 9 -68 25 -18 14 -36 25 -41 25 -4 0 -42 16 -83 36 -69
33 -293 101 -417 126 -27 6 -58 14 -67 19 -10 5 -51 9 -91 9 l-74 0 -7 92 c-3
50 -6 173 -6 272 0 100 -3 272 -7 383 l-6 203 -151 -2 c-83 0 -212 -7 -286
-14z m1798 -1524 c18 -29 -3 -24 -22 5 -11 16 -12 23 -3 20 7 -3 18 -14 25
-25z m-321 -232 c-3 -8 -6 -5 -6 6 -1 11 2 17 5 13 3 -3 4 -12 1 -19z m170
-60 c-3 -8 -6 -5 -6 6 -1 11 2 17 5 13 3 -3 4 -12 1 -19z m-2693 -1029 c-15
-16 -15 -23 -4 -43 7 -14 10 -36 6 -51 -6 -23 -4 -26 14 -20 18 6 22 1 19 -22
-1 -5 -5 -7 -10 -5 -12 3 -11 -25 1 -33 6 -3 10 -1 10 4 0 7 7 7 20 -1 11 -7
20 -23 20 -36 0 -19 -5 -22 -27 -20 -20 2 -30 -3 -39 -20 -23 -45 -30 -44 -55
7 -23 49 -24 50 -44 33 -20 -17 -20 -17 -3 3 16 19 16 25 2 73 -17 56 -12 108
8 96 7 -5 9 -2 6 8 -8 19 27 41 53 33 14 -5 19 -2 19 13 0 25 14 38 18 17 2
-9 -4 -25 -14 -36z m1465 -95 c2 -2 -17 -4 -43 -4 -30 0 -45 4 -41 10 6 9 72
4 84 -6z m281 -4 c0 -5 -2 -10 -4 -10 -3 0 -8 5 -11 10 -3 6 -1 10 4 10 6 0
11 -4 11 -10z m421 -8 c18 -7 -5 -11 -86 -16 -137 -7 -230 -15 -272 -22 -29
-4 -32 -9 -38 -47 -9 -59 -9 -79 0 -99 4 -11 3 -18 -4 -18 -6 0 -20 -8 -31
-17 -23 -20 -86 -19 -106 2 -11 11 -11 14 3 19 14 6 14 8 -3 21 -15 11 -16 15
-4 15 8 1 2 7 -15 15 -28 14 -26 14 40 9 39 -4 74 -7 79 -8 5 0 15 26 23 60
l14 60 47 12 c26 6 85 14 132 17 46 3 86 8 89 10 7 7 103 -3 132 -13z m149
-52 c-8 -5 -36 -10 -62 -10 -48 0 -63 -12 -30 -25 16 -7 15 -8 -3 -15 -11 -5
-36 -9 -55 -9 -37 -1 -243 -43 -272 -56 -14 -6 -18 -2 -18 16 2 81 75 107 305
108 100 0 145 -3 135 -9z m-1889 -17 c48 -28 42 -43 -8 -21 -69 31 -134 22
-181 -25 -34 -35 -36 -40 -35 -98 2 -47 7 -67 23 -84 14 -15 20 -36 21 -71 1
-60 11 -96 27 -102 8 -2 12 7 12 27 0 43 19 130 36 169 19 41 57 57 96 41 47
-19 53 -43 20 -81 -49 -57 -62 -86 -62 -132 0 -39 4 -48 33 -70 17 -13 58 -33
90 -44 74 -25 91 -52 84 -137 -5 -63 2 -77 48 -101 27 -14 23 -59 -7 -84 -25
-21 -65 -22 -61 -2 2 6 -8 14 -21 18 -14 3 -27 12 -30 20 -10 25 -29 16 -22
-11 9 -34 -13 -24 -41 20 -13 19 -23 37 -23 39 0 6 -65 109 -127 202 -29 43
-53 83 -53 89 0 6 -13 42 -30 81 -26 62 -30 84 -31 177 -2 101 0 108 24 141
20 26 38 36 74 44 73 15 112 14 144 -5z m2677 -34 c3 -6 9 -6 18 2 8 7 14 7
14 1 0 -5 -7 -12 -15 -16 -8 -3 -15 -12 -15 -19 0 -8 -7 -20 -15 -27 -12 -10
-20 -8 -41 9 -15 12 -37 21 -49 21 -12 0 -32 9 -44 19 l-23 20 54 4 c66 5 112
0 116 -14z m-583 1 c7 -12 -12 -12 -40 0 -18 8 -17 9 7 9 15 1 30 -3 33 -9z
m372 -16 c-3 -3 -12 -4 -19 -1 -8 3 -5 6 6 6 11 1 17 -2 13 -5z m-1625 -44
c23 -22 61 -46 83 -52 22 -6 45 -18 52 -26 9 -10 23 -12 55 -8 60 10 107 11
115 3 3 -4 7 -24 8 -44 1 -38 1 -38 43 -39 23 0 45 -4 49 -7 3 -4 28 -7 54 -7
55 0 58 6 60 110 1 120 18 32 18 -100 1 -163 10 -193 64 -224 52 -30 138 -52
237 -60 112 -10 160 -17 160 -26 0 -7 -162 -18 -312 -22 -32 -1 -49 -6 -53
-16 -5 -13 8 -14 92 -8 54 4 114 10 133 14 23 5 44 3 63 -6 15 -8 35 -11 44
-8 14 6 15 0 9 -45 -6 -45 -5 -51 9 -45 10 4 19 -2 25 -18 5 -13 15 -26 22
-29 20 -8 -10 -26 -34 -19 -36 9 -110 -33 -185 -105 -13 -13 -32 -23 -43 -23
-10 0 -22 -9 -25 -20 -4 -13 -15 -20 -31 -20 -13 0 -34 -11 -46 -25 -11 -13
-25 -22 -30 -19 -4 3 -8 -2 -8 -10 0 -9 -4 -16 -10 -16 -5 0 -10 -14 -10 -31
0 -16 -4 -28 -9 -25 -5 4 -12 -8 -16 -26 -4 -18 -13 -51 -21 -74 -15 -38 -18
-41 -73 -52 -74 -15 -98 -7 -92 31 0 4 -4 7 -10 7 -5 0 -7 5 -4 10 3 6 -1 10
-10 10 -9 0 -13 -4 -10 -10 11 -17 -17 -11 -30 7 -9 13 -24 17 -50 14 -31 -2
-37 0 -32 13 4 9 2 16 -3 16 -5 0 -11 -8 -14 -17 -3 -10 -4 -5 -2 10 2 19 -2
31 -15 38 -16 8 -21 5 -29 -16 -14 -38 -35 -25 -35 21 0 32 -4 40 -22 42 -14
2 -26 -4 -33 -17 -6 -12 -20 -21 -30 -21 -25 0 -26 29 -5 118 16 69 13 86 -15
79 -10 -2 -25 4 -34 15 -23 27 -35 15 -29 -30 4 -27 -1 -51 -16 -80 -23 -45
-32 -50 -51 -27 -7 8 -21 15 -32 15 -24 0 -43 43 -21 48 10 3 14 13 11 33 -3
19 1 30 10 34 21 8 23 3 13 -33 -6 -21 -6 -32 0 -32 6 0 7 -4 4 -10 -3 -5 -1
-10 4 -10 12 0 41 64 41 91 0 10 6 22 14 26 7 4 17 19 21 33 7 22 6 23 -8 11
-18 -15 -87 -7 -87 9 0 6 -6 10 -14 10 -9 0 -16 18 -20 50 -6 46 -8 49 -22 35
-17 -16 -42 -19 -62 -7 -9 7 -6 15 13 36 14 15 25 31 25 36 0 5 10 16 22 24
15 11 18 16 8 16 -8 0 2 10 23 22 20 12 37 26 37 31 0 5 9 16 20 25 17 15 18
21 7 62 -6 25 -14 47 -18 50 -3 3 -6 12 -7 20 -5 68 -16 127 -25 138 -6 8 -11
42 -11 77 0 120 55 150 136 75z m1304 3 c4 -13 2 -34 -4 -46 -9 -19 -11 -17
-11 19 -1 22 -7 46 -13 53 -11 10 -10 11 5 5 9 -3 20 -17 23 -31z m451 2 c0
-9 -24 -11 -79 -5 -22 2 -22 2 2 9 35 10 77 8 77 -4z m-3062 -15 c-3 -5 -12
-10 -18 -10 -7 0 -6 4 3 10 19 12 23 12 15 0z m2095 -39 c0 -10 10 -31 21 -46
19 -23 27 -26 58 -21 64 9 151 11 151 3 0 -4 11 -12 25 -17 14 -5 25 -16 25
-24 0 -8 11 -23 25 -34 14 -11 25 -25 25 -31 0 -6 7 -11 15 -11 21 0 19 -29
-6 -79 -16 -33 -18 -46 -8 -51 13 -9 36 15 92 100 48 71 47 54 -1 -33 -36 -67
-42 -72 -134 -118 -26 -13 -278 -11 -340 2 -80 17 -127 45 -144 84 -17 41 -20
199 -3 175 8 -11 12 -12 16 -2 2 6 13 12 23 12 10 0 22 5 25 10 3 6 17 10 31
10 19 0 24 5 24 24 0 25 41 66 66 66 8 0 14 -8 14 -19z m-2040 -5 c0 -3 -4 -8
-10 -11 -5 -3 -10 -1 -10 4 0 6 5 11 10 11 6 0 10 -2 10 -4z m2441 -93 c-12
-20 -14 -14 -5 12 4 9 9 14 11 11 3 -2 0 -13 -6 -23z m514 -13 c-3 -5 -11 -10
-16 -10 -6 0 -7 5 -4 10 3 6 11 10 16 10 6 0 7 -4 4 -10z m-2999 -37 c-11 -11
-19 6 -11 24 8 17 8 17 12 0 3 -10 2 -21 -1 -24z m2557 12 c-3 -9 -8 -14 -10
-11 -3 3 -2 9 2 15 9 16 15 13 8 -4z m-2750 -280 c-4 -12 -9 -13 -19 -4 -8 6
-14 18 -14 26 0 11 4 11 20 3 11 -6 17 -16 13 -25z m121 20 c-4 -8 -8 -15 -10
-15 -2 0 -4 7 -4 15 0 8 4 15 10 15 5 0 7 -7 4 -15z m1285 -316 c-15 -9 -32
-2 -24 11 3 5 13 6 21 3 12 -4 13 -8 3 -14z m1561 -45 c0 -8 -4 -14 -10 -14
-5 0 -10 9 -10 21 0 11 5 17 10 14 6 -3 10 -13 10 -21z m-58 -20 c-5 -9 -7
-25 -5 -35 3 -11 0 -19 -6 -19 -20 0 -23 28 -4 49 21 25 27 27 15 5z m-407
-24 c3 -5 1 -10 -4 -10 -6 0 -11 5 -11 10 0 6 2 10 4 10 3 0 8 -4 11 -10z
m336 -87 c16 -18 19 -66 5 -80 -4 -4 -31 -8 -61 -8 -45 -1 -55 2 -63 19 -13
30 2 63 39 85 34 21 52 18 80 -16z m-551 7 c0 -5 -5 -10 -11 -10 -5 0 -7 5 -4
10 3 6 8 10 11 10 2 0 4 -4 4 -10z m167 -108 c21 -13 26 -59 8 -69 -14 -8 -13
-11 7 -21 47 -24 107 -39 120 -31 11 7 11 9 0 9 -8 0 -10 5 -6 12 5 7 2 9 -7
6 -20 -8 -79 18 -79 34 1 40 13 58 40 58 20 0 31 -6 35 -20 6 -20 25 -28 25
-11 0 15 36 23 75 15 20 -3 35 -12 35 -20 0 -18 9 -18 31 2 10 9 33 18 50 20
18 2 38 9 45 15 11 9 14 7 14 -12 1 -21 2 -22 11 -6 14 24 29 21 29 -7 0 -35
10 -56 27 -56 9 0 13 6 9 15 -4 10 1 15 15 15 11 0 22 7 25 15 9 23 32 18 51
-11 14 -23 17 -56 17 -248 1 -271 -11 -342 -59 -355 -38 -10 -63 -3 -76 20 -9
18 -11 18 -34 3 -24 -15 -24 -15 -36 28 l-12 43 -13 -39 c-8 -22 -12 -47 -9
-57 3 -10 0 -21 -8 -26 -17 -10 -30 -43 -17 -43 6 0 10 -6 10 -13 0 -8 -7 -14
-15 -14 -8 0 -12 4 -9 9 3 5 -1 17 -9 26 -8 9 -17 28 -19 42 -2 20 -10 26 -34
28 -25 2 -33 -2 -42 -23 -14 -30 -35 -29 -40 1 -2 11 -12 25 -23 32 -16 10
-22 10 -34 -2 -10 -9 -11 -17 -5 -21 5 -3 10 -16 10 -28 0 -26 -37 -35 -54
-12 -6 7 -20 15 -31 17 -12 2 -19 11 -19 21 2 16 -29 23 -73 18 -7 -1 -13 7
-13 19 0 14 -7 20 -21 20 -11 0 -18 4 -15 9 3 5 0 14 -8 20 -11 9 -15 8 -20
-4 -4 -11 -15 -15 -33 -13 -22 2 -28 8 -28 28 0 14 -4 28 -10 32 -10 7 -11 11
-14 46 -1 9 -6 24 -11 32 -7 12 -12 12 -22 2 -6 -6 -18 -12 -25 -12 -11 0 -10
6 2 30 8 16 15 38 15 48 0 11 6 22 13 25 19 7 49 119 41 150 -8 35 -22 43 -22
14 -2 -55 -20 -128 -37 -147 -23 -25 -50 -27 -40 -2 4 9 12 31 17 47 6 17 14
35 18 40 5 6 11 46 15 90 10 115 9 113 58 111 23 -2 68 -8 101 -15 45 -10 61
-10 70 0 8 8 8 13 -1 16 -12 4 -8 28 10 51 11 14 17 15 34 4z m-987 -31 c0 -6
-4 -13 -10 -16 -5 -3 -10 1 -10 9 0 9 5 16 10 16 6 0 10 -4 10 -9z m1657 -56
c-4 -8 -12 -15 -19 -14 -10 0 -10 2 0 6 6 2 12 12 12 21 0 8 3 13 6 9 4 -3 4
-13 1 -22z m-1484 -21 c17 -6 23 -29 10 -37 -17 -10 -53 13 -53 34 0 13 5 19
13 15 6 -3 20 -9 30 -12z m1477 -38 c0 -8 -7 -17 -16 -20 -10 -4 -13 -13 -9
-26 3 -11 2 -20 -3 -20 -11 0 -24 58 -16 71 8 14 44 10 44 -5z m-2270 -246 c3
-4 15 -12 26 -18 23 -12 38 -49 23 -58 -17 -10 -9 -65 16 -104 14 -22 25 -46
25 -55 0 -8 5 -15 10 -15 6 0 10 -8 10 -17 0 -10 7 -27 15 -37 8 -11 15 -30
15 -42 0 -12 11 -31 23 -41 18 -14 22 -24 16 -38 -22 -56 -4 -90 40 -78 14 4
21 1 21 -10 0 -8 6 -20 13 -26 8 -6 19 -29 26 -51 6 -22 16 -40 21 -40 6 0 10
-6 10 -14 0 -8 14 -17 30 -21 17 -4 30 -11 30 -16 0 -6 4 -8 9 -5 5 3 11 -12
15 -34 4 -25 12 -40 21 -40 17 0 39 -36 30 -50 -4 -6 -2 -9 3 -8 10 3 52 -39
52 -51 0 -11 -52 -31 -63 -24 -6 3 -7 1 -3 -5 4 -7 2 -20 -3 -29 -6 -10 -11
-12 -11 -5 0 7 -13 12 -30 12 -28 0 -30 -3 -30 -35 0 -19 -2 -35 -4 -35 -2 0
-12 -3 -21 -6 -10 -4 -15 -2 -13 7 2 9 -5 13 -22 12 -27 -2 -209 69 -252 99
-14 10 -31 18 -37 18 -6 0 -11 5 -11 10 0 6 -8 10 -19 10 -10 0 -29 10 -43 23
-14 12 -50 41 -81 65 -30 24 -61 57 -68 73 -9 22 -14 27 -20 17 -6 -9 -9 -5
-9 12 -1 31 -25 67 -33 48 -3 -7 -6 -4 -6 7 -1 11 -7 29 -14 40 -15 21 -21
215 -7 215 3 0 7 6 8 13 1 6 3 26 4 44 2 18 9 38 16 45 6 6 12 22 12 34 0 12
5 24 11 26 7 2 7 12 -2 31 -15 33 -3 47 43 47 20 0 32 8 43 29 8 17 11 31 5
33 -12 4 -1 19 30 40 19 13 37 15 75 11 28 -3 52 -9 55 -13z m-385 -435 c68
-162 118 -239 212 -324 92 -84 232 -161 378 -209 187 -62 272 -75 480 -75 99
1 176 -1 170 -3 -27 -9 -211 -34 -257 -34 -48 0 -166 -28 -127 -29 9 -1 19 -7
22 -15 4 -10 0 -12 -16 -8 -12 2 -26 8 -32 12 -5 4 -32 15 -59 24 l-49 17 -28
-27 c-20 -19 -32 -24 -41 -17 -7 5 -39 20 -72 33 -89 36 -205 105 -262 158
-56 51 -62 56 -111 90 -18 13 -33 29 -33 36 0 8 -7 19 -16 26 -37 32 -109 139
-140 212 -44 103 -84 252 -83 308 1 41 2 38 24 -45 13 -49 31 -108 40 -130z
m1835 201 c0 -3 -4 -8 -10 -11 -5 -3 -10 -1 -10 4 0 6 5 11 10 11 6 0 10 -2
10 -4z m-3436 -1271 c3 -8 1 -15 -4 -15 -6 0 -10 7 -10 15 0 8 2 15 4 15 2 0
6 -7 10 -15z m643 -431 c-3 -3 -12 -4 -19 -1 -8 3 -5 6 6 6 11 1 17 -2 13 -5z
m-1962 -994 c-3 -5 -11 -10 -16 -10 -6 0 -7 5 -4 10 3 6 11 10 16 10 6 0 7 -4
4 -10z m982 -22 c-3 -7 -5 -2 -5 12 0 14 2 19 5 13 2 -7 2 -19 0 -25z m-362
-87 c-3 -6 -11 -11 -17 -11 -6 0 -6 6 2 15 14 17 26 13 15 -4z m48 -536 c-3
-9 -8 -14 -10 -11 -3 3 -2 9 2 15 9 16 15 13 8 -4z m5870 -912 c-13 -2 -23
-11 -23 -19 0 -16 -9 -18 -30 -4 -13 9 -13 11 0 20 8 5 29 9 45 8 23 0 25 -2
8 -5z m-1113 -667 c0 -11 -19 -15 -25 -6 -3 5 1 10 9 10 9 0 16 -2 16 -4z m53
-93 c-3 -7 -11 -13 -19 -13 -17 0 -17 5 -2 30 13 21 30 8 21 -17z m-168 -61
c-3 -7 -5 -23 -5 -35 0 -38 -17 -3 -23 46 l-5 47 20 -22 c10 -12 16 -28 13
-36z"/>
<path d="M3925 7510 c-3 -5 1 -10 10 -10 9 0 13 5 10 10 -3 6 -8 10 -10 10 -2
0 -7 -4 -10 -10z"/>
<path d="M4288 6972 c-26 -5 -22 -27 7 -46 l25 -16 -7 32 c-7 39 -4 35 -25 30z"/>
<path d="M6008 7173 c7 -3 16 -2 19 1 4 3 -2 6 -13 5 -11 0 -14 -3 -6 -6z"/>
<path d="M6528 6403 c7 -3 16 -2 19 1 4 3 -2 6 -13 5 -11 0 -14 -3 -6 -6z"/>
<path d="M6547 6274 c-29 -42 -25 -50 16 -35 28 11 31 22 18 55 -7 18 -11 16
-34 -20z"/>
<path d="M6412 6233 c-16 -17 3 -26 42 -21 l26 3 -28 16 c-23 13 -30 13 -40 2z"/>
<path d="M6378 5955 c-10 -13 -18 -42 -18 -64 0 -28 -5 -43 -17 -50 -14 -8 -8
-10 30 -11 40 0 47 3 47 20 0 26 17 26 25 0 4 -11 10 -18 15 -15 5 3 11 1 15
-5 8 -13 45 -13 45 1 0 6 9 8 20 4 27 -9 25 7 -5 43 -14 17 -25 39 -25 51 0
23 -3 24 -37 15 -13 -4 -23 -14 -23 -24 0 -23 -27 -33 -34 -13 -3 8 -4 19 0
24 6 11 -4 49 -14 49 -4 0 -15 -11 -24 -25z"/>
<path d="M6298 5923 c7 -3 16 -2 19 1 4 3 -2 6 -13 5 -11 0 -14 -3 -6 -6z"/>
<path d="M6428 5783 c7 -3 16 -2 19 1 4 3 -2 6 -13 5 -11 0 -14 -3 -6 -6z"/>
<path d="M6391 5764 c0 -11 3 -14 6 -6 3 7 2 16 -1 19 -3 4 -6 -2 -5 -13z"/>
<path d="M6638 5713 c7 -3 16 -2 19 1 4 3 -2 6 -13 5 -11 0 -14 -3 -6 -6z"/>
<path d="M5648 9573 c7 -3 16 -2 19 1 4 3 -2 6 -13 5 -11 0 -14 -3 -6 -6z"/>
<path d="M4032 8495 c0 -16 2 -22 5 -12 2 9 2 23 0 30 -3 6 -5 -1 -5 -18z"/>
<path d="M6950 8438 c0 -13 5 -30 10 -38 7 -11 9 -5 8 23 -1 39 -18 53 -18 15z"/>
<path d="M3911 8014 c0 -11 3 -14 6 -6 3 7 2 16 -1 19 -3 4 -6 -2 -5 -13z"/>
<path d="M3856 7934 c-5 -14 -4 -15 9 -4 17 14 19 20 6 20 -5 0 -12 -7 -15
-16z"/>
<path d="M3927 7937 c-4 -10 -7 -28 -7 -40 1 -20 2 -20 11 -4 6 10 9 28 7 40
-3 20 -4 20 -11 4z"/>
<path d="M3912 7840 c0 -19 2 -27 5 -17 2 9 2 25 0 35 -3 9 -5 1 -5 -18z"/>
<path d="M7248 7214 c-14 -55 -40 -124 -57 -153 -34 -57 -35 -61 -21 -61 27 0
116 239 108 293 -2 12 -15 -23 -30 -79z"/>
<path d="M3837 7246 c-3 -8 2 -16 14 -19 22 -6 25 6 5 22 -10 9 -15 8 -19 -3z"/>
<path d="M3797 7213 c-4 -3 -7 -11 -7 -17 0 -6 5 -5 12 2 6 6 9 14 7 17 -3 3
-9 2 -12 -2z"/>
<path d="M3745 7160 c-3 -5 -1 -10 4 -10 6 0 11 5 11 10 0 6 -2 10 -4 10 -3 0
-8 -4 -11 -10z"/>
<path d="M6800 7146 c0 -9 63 -36 69 -30 9 8 -30 34 -51 34 -10 0 -18 -2 -18
-4z"/>
<path d="M3621 7034 c0 -11 3 -14 6 -6 3 7 2 16 -1 19 -3 4 -6 -2 -5 -13z"/>
<path d="M6852 6838 c5 -16 50 -22 95 -13 52 9 29 25 -38 25 -44 0 -60 -3 -57
-12z"/>
<path d="M6996 6835 c-3 -8 -1 -15 4 -15 6 0 10 7 10 15 0 8 -2 15 -4 15 -2 0
-6 -7 -10 -15z"/>
<path d="M6800 6660 c0 -5 -7 -10 -15 -10 -8 0 -15 -6 -15 -14 0 -7 7 -19 15
-26 8 -7 15 -21 15 -31 0 -10 4 -20 9 -23 4 -3 6 -16 4 -28 -2 -13 2 -31 9
-41 12 -17 14 -13 11 30 -5 88 -15 153 -24 153 -5 0 -9 -4 -9 -10z"/>
<path d="M6790 6539 c0 -5 5 -7 10 -4 6 3 10 8 10 11 0 2 -4 4 -10 4 -5 0 -10
-5 -10 -11z"/>
<path d="M8280 6471 c0 -5 5 -13 10 -16 6 -3 10 -2 10 4 0 5 -4 13 -10 16 -5
3 -10 2 -10 -4z"/>
<path d="M6940 6356 c0 -8 4 -17 9 -20 10 -7 23 19 14 28 -11 11 -23 6 -23 -8z"/>
<path d="M635 3550 c7 -12 213 -11 221 2 3 4 -47 8 -111 8 -75 0 -114 -4 -110
-10z"/>
<path d="M9965 3411 c-22 -10 -51 -30 -64 -44 -31 -34 -39 -103 -17 -146 17
-31 69 -71 93 -71 17 0 79 123 64 128 -18 6 -12 29 9 35 18 4 60 81 60 108 0
16 -103 8 -145 -10z"/>
<path d="M9886 3084 c-31 -56 -32 -60 -7 -74 31 -16 35 -13 64 45 26 53 26 55
7 65 -30 16 -37 13 -64 -36z"/>
<path d="M5368 1553 c6 -2 18 -2 25 0 6 3 1 5 -13 5 -14 0 -19 -2 -12 -5z"/>
<path d="M5440 1532 c0 -5 17 -16 38 -25 l37 -17 -30 25 c-31 26 -45 31 -45
17z"/>
<path d="M4888 1413 c7 -3 16 -2 19 1 4 3 -2 6 -13 5 -11 0 -14 -3 -6 -6z"/>
<path d="M4829 1405 c-3 -2 -20 -6 -39 -9 -19 -2 -60 -14 -90 -26 -30 -12 -83
-32 -117 -45 -90 -33 -191 -92 -243 -141 -116 -110 -123 -115 -174 -108 l-46
7 -2 -32 c-1 -17 -2 -39 -2 -48 -1 -16 8 -18 76 -15 75 2 134 23 163 57 17 20
141 95 158 95 9 0 31 14 49 31 18 17 45 37 60 45 16 8 27 20 25 27 -1 6 3 11
8 10 6 0 16 5 23 13 7 8 10 14 6 14 -16 0 47 39 120 74 57 28 75 40 65 47 -15
10 -33 12 -40 4z"/>
<path d="M2528 1333 c6 -2 18 -2 25 0 6 3 1 5 -13 5 -14 0 -19 -2 -12 -5z"/>
<path d="M4885 1200 c-16 -7 -13 -9 17 -9 20 -1 39 -5 42 -10 4 -5 25 -12 49
-16 72 -12 269 -84 261 -96 -3 -5 1 -9 10 -9 8 0 25 -13 38 -29 14 -16 34 -34
46 -40 43 -23 18 -50 -45 -51 -46 0 -21 -16 55 -33 43 -10 118 -20 167 -21
110 -2 140 13 150 74 14 82 -7 95 -210 129 -71 12 -144 27 -162 32 -17 5 -65
16 -105 23 -40 8 -107 23 -148 34 -103 27 -142 32 -165 22z m500 -280 c3 -5 1
-10 -4 -10 -6 0 -11 5 -11 10 0 6 2 10 4 10 3 0 8 -4 11 -10z"/>
<path d="M3023 1185 c-8 -22 6 -33 17 -15 13 20 12 30 0 30 -6 0 -13 -7 -17
-15z"/>
<path d="M4742 1183 c-6 -2 -9 -9 -6 -15 5 -7 -2 -9 -20 -6 -14 3 -29 1 -33
-5 -4 -6 10 -8 41 -3 25 3 66 9 91 12 24 4 42 10 39 15 -5 9 -90 11 -112 2z"/>
<path d="M4628 1133 c7 -3 16 -2 19 1 4 3 -2 6 -13 5 -11 0 -14 -3 -6 -6z"/>
<path d="M4938 883 c6 -2 18 -2 25 0 6 3 1 5 -13 5 -14 0 -19 -2 -12 -5z"/>
<path d="M4822 848 c-42 -14 -59 -24 -50 -29 22 -15 51 -9 108 21 44 23 50 29
30 29 -14 0 -53 -9 -88 -21z"/>
<path d="M4708 805 c-6 -7 -94 -29 -173 -45 -33 -6 -109 -27 -170 -45 -60 -18
-124 -36 -141 -40 -39 -8 -70 -70 -49 -98 10 -14 20 -16 63 -7 28 5 92 12 144
16 54 4 110 14 133 24 92 41 330 55 415 25 47 -17 80 -20 65 -7 -20 18 -116
53 -155 56 -22 2 -46 9 -53 14 -7 5 -27 13 -44 17 -30 6 -32 9 -27 33 4 15 14
35 22 45 14 15 13 17 -5 17 -11 0 -22 -2 -25 -5z m-18 -51 c0 -2 -7 -4 -15 -4
-8 0 -15 4 -15 10 0 5 7 7 15 4 8 -4 15 -8 15 -10z"/>
<path d="M5685 548 c-24 -6 -110 -7 -211 -4 -159 6 -175 4 -220 -15 -103 -44
-131 -58 -143 -73 -12 -14 -10 -16 8 -16 12 0 20 4 16 9 -3 5 11 5 32 -1 21
-6 105 -10 188 -11 160 -1 242 15 330 62 22 11 44 21 50 21 5 0 28 5 50 11 34
10 37 13 20 20 -27 10 -71 9 -120 -3z"/>
<path d="M4156 487 c-5 -15 -6 -31 -2 -34 11 -11 18 5 14 34 l-4 28 -8 -28z"/>
<path d="M5068 423 c7 -3 16 -2 19 1 4 3 -2 6 -13 5 -11 0 -14 -3 -6 -6z"/>
<path d="M4750 350 c-34 -4 -43 -7 -24 -8 17 -1 47 -5 65 -8 23 -4 30 -3 20 4
-11 8 -11 10 0 15 16 6 13 6 -61 -3z"/>
<path d="M5865 330 c-3 -5 -1 -10 4 -10 6 0 11 5 11 10 0 6 -2 10 -4 10 -3 0
-8 -4 -11 -10z"/>
<path d="M5788 313 c6 -2 18 -2 25 0 6 3 1 5 -13 5 -14 0 -19 -2 -12 -5z"/>
</g>
</svg>
